{"title":"Man On A Ledge (2012) CAM (ENG) NoGrp","uid":7010912,"size":1946220259,"categoryP":"video","categoryS":"movies","magnet":"?xt=urn:btih:ab43d84e61bb8bcd947b52c623a649e3d3c66245&amp;dn=Man+On+A+Ledge+%282012%29+CAM+%28ENG%29+NoGrp&amp;tr=udp%3A%2F%2Ftracker.openbittorrent.com%3A80&amp;tr=udp%3A%2F%2Fopen.demonii.com%3A1337&amp;tr=udp%3A%2F%2Ftracker.coppersurfer.tk%3A6969&amp;tr=udp%3A%2F%2Fexodus.desync.com%3A6969","seeders":2,"leechers":0,"uploader":"LegendET","files":2,"time":1328452150,"description":"\n\n\n[center][img]http://img705.imageshack.us/img705/6931/fvuae.jpg[/img]\n\n\n\nFormat : AVI\nFormat/Info : Audio Video Interleave\nFormat profile : OpenDML\nFile size : 1.81 GiB\nDuration : 1h 36mn\nOverall bit rate : 2 687 Kbps\nWriting application : Lavf52.47.0\n\nVideo\nID : 0\nFormat : MPEG-4 Visual\nFormat profile : Simple@L1\nFormat settings, BVOP : No\nFormat settings, QPel : No\nFormat settings, GMC : No warppoints\nFormat settings, Matrix : Default (H.263)\nCodec ID : FMP4\nDuration : 1h 36mn\nBit rate : 2 547 Kbps\nWidth : 720 pixels\nHeight : 576 pixels\nDisplay aspect ratio : 16:9\nFrame rate : 25.000 fps\nStandard : PAL\nColor space : YUV\nChroma subsampling : 4:2:0\nBit depth : 8 bits\nScan type : Progressive\nCompression mode : Lossy\nBits/(Pixel*Frame) : 0.246\nStream size : 1.72 GiB (95%)\nWriting library : Lavc52.48.0\n\nAudio\nID : 1\nFormat : MPEG Audio\nFormat version : Version 1\nFormat profile : Layer 3\nMode : Joint stereo\nMode extension : MS Stereo\nCodec ID : 55\nCodec ID/Hint : MP3\nDuration : 1h 36mn\nBit rate mode : Constant\nBit rate : 128 Kbps\nChannel(s) : 2 channels\nSampling rate : 44.1 KHz\nCompression mode : Lossy\nStream size : 88.4 MiB (5%)\nAlignment : Aligned on interleaves\nInterleave, duration : 26 ms (0.65 video frame)\nWriting library : LAME3.97\n &lt;a href=&quot;\nhttp://www.imdb.com/title/tt1568338/&quot; rel=&quot;nofollow&quot; target=&quot;_NEW&quot;&gt;\nhttp://www.imdb.com/title/tt1568338/&lt;/a&gt;\n\n\n[img]http://img23.imageshack.us/img23/7422/fhxyk.jpg[/img][/center]","torrent":{"xt":"urn:btih:ab43d84e61bb8bcd947b52c623a649e3d3c66245","amp;dn":"Man+On+A+Ledge+%282012%29+CAM+%28ENG%29+NoGrp","amp;tr":["udp%3A%2F%2Ftracker.openbittorrent.com%3A80","udp%3A%2F%2Fopen.demonii.com%3A1337","udp%3A%2F%2Ftracker.coppersurfer.tk%3A6969","udp%3A%2F%2Fexodus.desync.com%3A6969"],"infoHash":"ab43d84e61bb8bcd947b52c623a649e3d3c66245","infoHashBuffer":{"type":"Buffer","data":[171,67,216,78,97,187,139,205,148,123,82,198,35,166,73,227,211,198,98,69]},"announce":[],"urlList":[]}}